<?xml version="1.0" encoding="utf-8"?>
<!-- Generator: Adobe Illustrator 17.0.0, SVG Export Plug-In . SVG Version: 6.00 Build 0)  -->
<!DOCTYPE svg PUBLIC "-//W3C//DTD SVG 1.1//EN" "http://www.w3.org/Graphics/SVG/1.1/DTD/svg11.dtd">
<svg version="1.1" id="Layer_1" xmlns="http://www.w3.org/2000/svg" xmlns:xlink="http://www.w3.org/1999/xlink" x="0px" y="0px"
	 width="48px" height="48px" viewBox="0 0 48 48" enable-background="new 0 0 48 48" xml:space="preserve">
<path fill="#F7BF3A" d="M4,33h40V7h2v26c0,1.1-0.9,2-2,2H26.96l6.91,10.7l-1.74,1L25,35.65V47h-2V35.65L15.87,46.7l-1.74-1L21.04,35
	H4c-1.1,0-2-0.9-2-2V7h2V33z M25,26c-0.55,0-1,0.45-1,1s0.45,1,1,1s1-0.45,1-1S25.55,26,25,26z M9,23c-0.55,0-1,0.45-1,1s0.45,1,1,1
	s1-0.45,1-1S9.55,23,9,23z M39,16c0.55,0,1-0.45,1-1s-0.45-1-1-1s-1,0.45-1,1S38.45,16,39,16z M39,12c1.66,0,3,1.34,3,3s-1.34,3-3,3
	c-0.42,0-0.83-0.09-1.19-0.25l-9.87,8.63C27.98,26.58,28,26.79,28,27c0,1.66-1.34,3-3,3c-1.25,0-2.32-0.77-2.77-1.86l-10.71-2.52
	C10.99,26.45,10.06,27,9,27c-1.66,0-3-1.34-3-3s1.34-3,3-3c1.54,0,2.8,1.17,2.97,2.67l10.19,2.4C22.55,24.87,23.67,24,25,24
	c0.71,0,1.35,0.26,1.86,0.66l9.49-8.29C36.13,15.96,36,15.5,36,15C36,13.34,37.34,12,39,12z M30.89,9.61l-1.42,7.07l-2.12-2.12
	l-3.53,3.54l-1.42-1.42l3.54-3.53l-2.12-2.12L30.89,9.61z M44,5H4H0V3h22V1h4v2h22v2H44z"/>
</svg>
