<?xml version="1.0" encoding="utf-8"?>
<!-- Generator: Adobe Illustrator 17.0.0, SVG Export Plug-In . SVG Version: 6.00 Build 0)  -->
<!DOCTYPE svg PUBLIC "-//W3C//DTD SVG 1.1//EN" "http://www.w3.org/Graphics/SVG/1.1/DTD/svg11.dtd">
<svg version="1.1" id="Layer_1" xmlns="http://www.w3.org/2000/svg" xmlns:xlink="http://www.w3.org/1999/xlink" x="0px" y="0px"
	 width="48px" height="48px" viewBox="0 0 48 48" enable-background="new 0 0 48 48" xml:space="preserve">
<path fill="#F7BF3A" d="M12.722,22.75l-5.75,5.75l-1.44-1.44l5.75-5.75L12.722,22.75z M10.532,17.5h-8v-2h8V17.5z M6.222,6.6
	l1.41-1.41l5.66,5.65l-1.42,1.42L6.222,6.6z M16.532,1.5h2v8h-2V1.5z M21.342,11.25l5.75-5.75l1.44,1.44l-5.75,5.75L21.342,11.25z
	 M24.532,15.5h8v2h-8V15.5z M42.642,30.09l-3.93-6.78c-0.35-0.6-0.51-0.64-1.11-0.78c-0.47-0.11-1.23,0.04-1.35,0.09l-2.31,1.33
	c-0.36,0.2-0.81,0.17-1.13-0.09c-0.38-0.3-0.57-0.42-0.66-0.47l-0.03,0.01l-2.39,1.41c-0.48,0.28-1.1,0.13-1.38-0.35
	c-0.08-0.13-0.14-0.21-0.18-0.26l-0.23,0.1l-0.13,0.06l-2.31,1.33c-0.24,0.13-0.51,0.17-0.77,0.1s-0.48-0.24-0.61-0.47l-4.01-6.91
	c-0.2-0.38-0.75-0.91-1.51-0.91c-0.32,0-0.66,0.1-1.01,0.3c-0.45,0.26-0.72,0.56-0.81,0.9c-0.14,0.52,0.16,1.11,0.29,1.34
	l6.77,11.66c0.2,0.35,0.18,0.78-0.07,1.11c-0.25,0.32-0.66,0.46-1.06,0.36c-0.34-0.09-0.71-0.2-1.08-0.31
	c-0.94-0.28-2.01-0.59-2.67-0.59c-0.2,0-0.27,0.03-0.28,0.03c-1.72,0.99-1.28,1.83-1.04,2.27c0.35,0.68,0.78,1,0.95,1.12l0.1,0.08
	l11.96,5.32c0.19,0.08,0.35,0.23,0.46,0.41l1.52,2.63l10.77-6.18L42.642,30.09z M44.962,39.36l-12.19,7
	c-0.16,0.1-0.33,0.14-0.5,0.14c-0.35,0-0.69-0.18-0.88-0.5l-1.86-3.22l-11.8-5.24c-0.1-0.05-0.19-0.11-0.27-0.18l-0.09-0.08
	c-0.23-0.16-0.94-0.7-1.51-1.77c-1.01-1.9-0.34-3.7,1.82-4.95c0.74-0.42,1.9-0.32,3.18,0l-5.52-9.51c-0.33-0.55-0.83-1.65-0.51-2.86
	c0.23-0.87,0.82-1.59,1.75-2.12c0.66-0.38,1.34-0.57,2.02-0.57c1.57,0,2.8,1.02,3.28,1.96l3.48,5.99l1.49-0.85l0.11-0.06l0.15-0.06
	c0.3-0.14,0.67-0.3,1.12-0.3s0.85,0.16,1.21,0.47l1.71-1c0.28-0.15,0.6-0.29,1-0.29c0.48,0,0.91,0.21,1.36,0.52l1.79-1.03
	c0.35-0.21,1.15-0.37,1.84-0.37c0.33,0,0.64,0.03,0.92,0.1c0.91,0.21,1.66,0.47,2.39,1.73l4.05,6.96c0.07,0.13,0.11,0.27,0.13,0.41
	l0.83,8.72C45.503,38.79,45.302,39.17,44.962,39.36z"/>
</svg>
