<?xml version="1.0" encoding="utf-8"?>
<!-- Generator: Adobe Illustrator 17.0.0, SVG Export Plug-In . SVG Version: 6.00 Build 0)  -->
<!DOCTYPE svg PUBLIC "-//W3C//DTD SVG 1.1//EN" "http://www.w3.org/Graphics/SVG/1.1/DTD/svg11.dtd">
<svg version="1.1" id="Layer_1" xmlns="http://www.w3.org/2000/svg" xmlns:xlink="http://www.w3.org/1999/xlink" x="0px" y="0px"
	 width="48px" height="48px" viewBox="0 0 48 48" enable-background="new 0 0 48 48" xml:space="preserve">
<path fill="#F7BF3A" d="M6,12c-1.1,0-2-0.9-2-2s0.9-2,2-2s2,0.9,2,2S7.1,12,6,12z M12,12c-1.1,0-2-0.9-2-2s0.9-2,2-2s2,0.9,2,2
	S13.1,12,12,12z M18,12c-1.1,0-2-0.9-2-2s0.9-2,2-2s2,0.9,2,2S19.1,12,18,12z M2,6v8h44V6H2z M5,42v-0.5c0-2.47,4.4-3.24,5.18-3.36
	c0.31-1.12,0.77-2.17,1.32-3.16c-0.21-0.32-3.01-4.53-1.45-6.08l0.89-0.76c1.76-1.75,5.4,0.89,6,1.34c1.01-0.57,2.08-1.04,3.22-1.36
	C20.36,27.3,21.5,23,23.57,23h0.93c2.36,0,3.17,4.04,3.34,5.09c1.16,0.31,2.25,0.78,3.27,1.36c0.69-0.46,4.48-2.87,5.95-1.4
	l0.84,0.89c1.68,1.68-0.71,5.12-1.34,5.94c0.59,1.03,1.06,2.13,1.38,3.3v-0.06c0,0,5.06,0.67,5.06,3.38V42h3V16H2v26L5,42L5,42z
	 M16.71,42h14.6v-0.04c0-4-3.38-7.25-7.37-7.25s-7.23,3.25-7.23,7.25V42z M46,44h-3.91H31.01H17.03H5.91H2c-1.1,0-2-0.9-2-2V6
	c0-1.1,0.9-2,2-2h44c1.1,0,2,0.9,2,2v36C48,43.1,47.1,44,46,44z"/>
</svg>
