<?xml version="1.0" encoding="utf-8"?>
<!-- Generator: Adobe Illustrator 17.0.0, SVG Export Plug-In . SVG Version: 6.00 Build 0)  -->
<!DOCTYPE svg PUBLIC "-//W3C//DTD SVG 1.1//EN" "http://www.w3.org/Graphics/SVG/1.1/DTD/svg11.dtd">
<svg version="1.1" id="Layer_1" xmlns="http://www.w3.org/2000/svg" xmlns:xlink="http://www.w3.org/1999/xlink" x="0px" y="0px"
	 width="48px" height="48px" viewBox="0 0 48 48" enable-background="new 0 0 48 48" xml:space="preserve">
<path fill="#F7BF3A" d="M24,11.585c-3.87,0-7,3.13-7,7s3.13,7,7,7s7-3.13,7-7S27.87,11.585,24,11.585z M24,27.585
	c-4.97,0-9-4.03-9-9s4.03-9,9-9s9,4.03,9,9S28.97,27.585,24,27.585z M31.63,9.615l-0.66-4.42l-3.99,2l-2.5-3.7l-2.74,3.54
	l-3.86-2.25l-0.93,4.37l-4.45-0.35l1.06,4.34l-4.16,1.62l2.83,3.45l-3.04,3.26l4.05,1.88l-1.33,4.27l4.46-0.07l0.66,4.42l3.99-2
	l2.5,3.7l2.74-3.54l3.86,2.25l0.93-4.37l4.45,0.35l-1.06-4.34l4.16-1.62l-2.83-3.45l3.04-3.26l-4.05-1.88l1.33-4.27L31.63,9.615z
	 M10.04,39.915l4.46,0.27l2.46,3.73l5.23-9.05l-0.7-1.04l-1.96-1.13l-3.9,1.95l-0.52-3.52L10.04,39.915z M30.04,43.915l2.46-3.73
	l4.46-0.27l-4.85-8.4l-0.77,3.63l-4.04-2.35l-1.55,0.89l-0.93,1.2L30.04,43.915z M41.78,15.115l-3.66,3.91l3.4,4.14l-4.99,1.95
	l1.27,5.2l-4.26-0.33l6.66,11.53l-6.7,0.4l-3.7,5.6l-6.3-10.92l-0.01,0.02l-6.29,10.9l-3.7-5.6l-6.7-0.4l7.02-12.15l-4.33,0.06
	l1.59-5.11l-4.86-2.26l3.66-3.91l-3.4-4.14l4.99-1.95l-1.27-5.2l5.34,0.41l1.12-5.24l4.63,2.69l3.28-4.23l3.01,4.43l4.79-2.39
	l0.78,5.3l5.36-0.08l-1.59,5.11L41.78,15.115z"/>
</svg>
